<svg xmlns="http://www.w3.org/2000/svg" viewBox="0 0 74.83 89.91"><g id="Layer_2" data-name="Layer 2"><g id="Layer_1-2" data-name="Layer 1"><path d="M10.3,83.27a12.54,12.54,0,0,1-10-5A1.44,1.44,0,0,1,0,77.16c.13-.64.24-1.28.36-1.93,1.33-7.35,2.85-15.68,8.19-20.74a14.64,14.64,0,0,1,2.12-1.64,5.36,5.36,0,0,1,.94-6.69,5.34,5.34,0,0,1-1.69-3.92,5.46,5.46,0,0,1,1.69-3.92,5.4,5.4,0,0,1,0-7.85,5.44,5.44,0,0,1-1.69-3.92A5.36,5.36,0,0,1,11.31,23a3.21,3.21,0,0,1-.83-1.11c-1.39-2.91,1.65-7,5.16-11.37.48-.58.86-1.05,1.12-1.42A22,22,0,0,1,37.41.18,22,22,0,0,1,58.08,9.07c.26.37.64.84,1.11,1.42,3.52,4.32,6.56,8.44,5.17,11.37A3.37,3.37,0,0,1,63.52,23a5.38,5.38,0,0,1-.32,7.5,5.4,5.4,0,0,1,0,7.85,5.39,5.39,0,0,1,0,7.84,5.34,5.34,0,0,1,1,6.69,14.64,14.64,0,0,1,2.12,1.64c5.33,5.06,6.85,13.44,8.2,20.81l.34,1.86a1.46,1.46,0,0,1-.27,1.14,12.57,12.57,0,0,1-10,5c-.32,0-.64,0-1,0l-1.43-17a1.43,1.43,0,0,0-1.58-1.33,1.45,1.45,0,0,0-1.33,1.56l1.54,18.3c-4.41,3.13-13.19,5.14-23.33,5.14s-18.89-2-23.3-5.14l1.54-18.3a1.46,1.46,0,0,0-2.92-.23l-1.41,17c-.34,0-.67,0-1,0ZM32.09,46.19c-.07.32-.13.64-.22.92l.71.4a1.86,1.86,0,0,0,.19.11l4.63,2.72,4.69-2.74.13-.06.73-.43a5.16,5.16,0,0,1-.19-.92,10.42,10.42,0,0,1-10.67,0ZM24,33.72a38,38,0,0,1-.84-6.45c-.44-6.09,1.14-11.46,4.46-15.1A13.63,13.63,0,0,1,37.38,7.6a13.66,13.66,0,0,1,9.86,4.57c3.32,3.64,4.9,9,4.45,15.14a33.9,33.9,0,0,1-.88,6.62c-.68,5.53.31,9.23,2.94,11a1.46,1.46,0,0,1,.62,1.44,1.5,1.5,0,0,1-1,1.18,2.61,2.61,0,0,0-.17,5h6.34a2.47,2.47,0,1,0,0-4.93,1.46,1.46,0,1,1,0-2.91,2.47,2.47,0,0,0,0-4.93,1.46,1.46,0,0,1,0-2.92,2.46,2.46,0,1,0,0-4.92,1.46,1.46,0,0,1,0-2.92,2.47,2.47,0,0,0,0-4.93,1.46,1.46,0,1,1,0-2.91c1.44,0,2.08-.3,2.21-.56.72-1.52-3.43-6.62-4.78-8.29-.52-.62-.94-1.16-1.22-1.54A19.17,19.17,0,0,0,37.59,3.1H37.2a19.14,19.14,0,0,0-18.1,7.69c-.27.39-.7.92-1.2,1.54-1.37,1.67-5.52,6.79-4.8,8.29.11.26.77.56,2.19.56a1.46,1.46,0,1,1,0,2.91,2.47,2.47,0,0,0,0,4.93,1.46,1.46,0,0,1,0,2.92,2.46,2.46,0,0,0,0,4.92,1.46,1.46,0,1,1,0,2.92,2.47,2.47,0,0,0,0,4.93,1.46,1.46,0,0,1,1.46,1.46,1.45,1.45,0,0,1-1.46,1.45A2.47,2.47,0,0,0,13.75,52a.6.6,0,0,0,.13.09,2.46,2.46,0,0,0,1.41.45h6.36a2.61,2.61,0,0,0-.17-5,1.5,1.5,0,0,1-1-1.18A1.47,1.47,0,0,1,21.08,45c3.53-2.42,3.32-7.52,2.89-11.24Zm13.41-23.2a10.73,10.73,0,0,0-7.62,3.59c-2.79,3.07-4.1,7.68-3.71,13,.53,12.13,6.26,17.64,11.35,17.66,6.07,0,9.52-6.71,10.65-11.85a33.24,33.24,0,0,0,.73-5.76c.38-5.36-.92-10-3.71-13a10.66,10.66,0,0,0-7.69-3.61Zm4.48,68.14a1.45,1.45,0,0,1-1.44-1.2L37.85,62.21a1.48,1.48,0,0,1,1.2-1.69,1.44,1.44,0,0,1,1.67,1.2L43.29,77a1.45,1.45,0,0,1-1.19,1.67.93.93,0,0,1-.24,0Zm-8.89,0a1,1,0,0,1-.24,0A1.46,1.46,0,0,1,31.53,77L34.1,61.72a1.45,1.45,0,0,1,1.68-1.2A1.47,1.47,0,0,1,37,62.21L34.4,77.46A1.43,1.43,0,0,1,33,78.66Zm-.84-28a1.94,1.94,0,0,0-.36,1,2,2,0,0,0,.7,1.67,1.47,1.47,0,0,1,.43,1.58l-6.49,19a2.28,2.28,0,0,0,2.29.83,1.53,1.53,0,0,1,1.38.41,1.46,1.46,0,0,1,.36,1.37c-.54,2.17-.9,3.6-1.09,4.31A2.67,2.67,0,0,0,32,82.07a1.43,1.43,0,0,1,1.24.39,6,6,0,0,0,8.32,0,1.43,1.43,0,0,1,1.24-.4,2.64,2.64,0,0,0,2.68-1.24l-1.1-4.31a1.47,1.47,0,0,1,.37-1.37,1.49,1.49,0,0,1,1.37-.41,2.25,2.25,0,0,0,2.29-.83l-6.49-19a1.47,1.47,0,0,1,.41-1.56A2,2,0,0,0,43,51.63a1.84,1.84,0,0,0-.35-1l-4.56,2.66a1.5,1.5,0,0,1-1.46,0Z"/></g></g></svg>