<svg xmlns="http://www.w3.org/2000/svg" viewBox="0 0 80.99 89.99"><g id="Layer_2" data-name="Layer 2"><g id="Layer_1-2" data-name="Layer 1"><path d="M12.29,82.73a13.44,13.44,0,0,1-12-5.29A1.44,1.44,0,0,1,0,76.3c.13-.68.26-1.39.39-2.1,1.46-7.94,3.1-17,8.87-22.45,4.09-3.87,10.73-5.37,16.57-6.7,1.16-.28,2.29-.51,3.35-.79.58-.13,1.24.3,1.71-.09.26-.23.88-1.05,1-3.92a20.18,20.18,0,0,1-4.61-7.11c-2.16-.32-4.15-2-5.38-4.54-1.09-2.31-1.45-5.44.15-7.22a3.66,3.66,0,0,1,2.74-1.13c-.66-6,.62-11.23,3.71-15A14.5,14.5,0,0,1,39.65,0a14.81,14.81,0,0,1,11.2,5.16c2.4,2.7,5,7.41,5.06,15.11a3.64,3.64,0,0,1,3,1.13c1.63,1.76,1.24,4.89.15,7.2a9.39,9.39,0,0,1-2,2.83,14.29,14.29,0,0,1,3.13,5.83c.62,2,1,3.21,3.45,4.24a1.92,1.92,0,0,1,1.14,1.22c.56,1.67-1.52,3.3-2.66,4.1,3.65,1.11,7.1,2.59,9.58,5,5.76,5.5,7.43,14.54,8.89,22.53.1.67.23,1.35.36,2a1.5,1.5,0,0,1-.28,1.15,13.56,13.56,0,0,1-12,5.27l-1.55-18.3a1.46,1.46,0,0,0-2.91.23L65.52,79.5l.39,4.82C61.22,87.77,51.6,90,40.48,90s-20.71-2.23-25.4-5.65l.4-4.84,1.24-14.83a1.45,1.45,0,0,0-1.32-1.56,1.48,1.48,0,0,0-1.59,1.33ZM28.06,23.29c1.82,22.53,21.57,24.12,24.59,2.35l-.19-.32v0a2.87,2.87,0,0,1-2.85,2.87H43.29a2.83,2.83,0,0,1-2.78-2.31,2.88,2.88,0,0,1-2.83,2.31h-6.3a2.86,2.86,0,0,1-2.87-2.87v-2.2c-.15,0-.3.1-.45.15Zm14.8-3.9a33.73,33.73,0,0,1-7.73-2.94,9.57,9.57,0,0,1-1.35,2.89h3.9a2.91,2.91,0,0,1,2.83,2.32,2.78,2.78,0,0,1,2.35-2.27Zm.49,5.91h6.2v-3h-6.2Zm-11.93-3v3.08l6.21,0v-3Zm15,20.14a11.24,11.24,0,0,1-11.76,0,6.12,6.12,0,0,1-1.85,4,3.31,3.31,0,0,1-1.35.71l2.14,8.27a17.14,17.14,0,0,0,13.89-.11l2.11-8.14a4.06,4.06,0,0,1-1.35-.71,6.1,6.1,0,0,1-1.83-4Zm9.44-19.2a36.32,36.32,0,0,1-.94,6.3,6.52,6.52,0,0,0,1.56-2.14c.82-1.74.84-3.45.35-4a1.12,1.12,0,0,0-1-.17Zm-31.64.15c-.49.54-.47,2.27.35,4a6.43,6.43,0,0,0,1.58,2.12,37.7,37.7,0,0,1-1-6.3,1.12,1.12,0,0,0-.95.17ZM31,56.92l-.06-.28-2.4-9.21-.84.19L25.9,57.9l4.26.53A1.44,1.44,0,0,1,31.44,60l-1,12.83L36.69,79ZM52.5,47.43,44.28,79l6.27-6.16L49.54,60a1.47,1.47,0,0,1,1.29-1.56l4.27-.51L53.34,47.62l-.84-.19Z"/></g></g></svg>