<svg xmlns="http://www.w3.org/2000/svg" version="1.1" viewBox="-5.0 -10.0 110.0 135.0">
 <path d="m22.891 88.312c-3.8789 0-7.6055-1.8008-10.004-4.9727-0.25781-0.32031-0.34375-0.73047-0.27734-1.1367 0.12891-0.64062 0.23438-1.2852 0.36328-1.9297 1.3281-7.3477 2.8477-15.68 8.1836-20.738 0.62109-0.57812 1.3086-1.1328 2.1211-1.6484-0.49219-0.8125-0.76953-1.7578-0.76953-2.7656 0-1.543 0.66406-2.9336 1.7148-3.918-1.0508-0.98438-1.6914-2.3789-1.6914-3.9219s0.66406-2.9375 1.6914-3.9219c-1.0273-0.98438-1.6914-2.3789-1.6914-3.9219s0.66406-2.9375 1.6914-3.9219c-1.0273-0.98438-1.6914-2.3789-1.6914-3.9219 0-1.3711 0.51562-2.6367 1.3711-3.5781-0.36328-0.32031-0.64453-0.6875-0.83594-1.1133-1.3906-2.9102 1.6484-7.0508 5.1641-11.375 0.47266-0.57812 0.85938-1.0508 1.1133-1.4141 4.7344-6.5117 12.641-9.918 20.652-8.8906 8.0352-1.0273 15.938 2.3555 20.672 8.8906 0.25781 0.36328 0.64062 0.83594 1.1133 1.4141 3.5156 4.3242 6.5547 8.4414 5.1641 11.375-0.19141 0.42969-0.49219 0.79297-0.83594 1.1133 0.85547 0.94141 1.3711 2.207 1.3711 3.5781 0 1.543-0.64453 2.9336-1.6914 3.9219 1.0508 0.98438 1.6914 2.3789 1.6914 3.9219s-0.64453 2.9375-1.6914 3.9219c1.0508 0.98438 1.6914 2.3789 1.6914 3.9219s-0.64453 2.9336-1.6914 3.9219c1.0508 0.98438 1.7148 2.375 1.7148 3.918 0 1.0078-0.27734 1.9492-0.76953 2.7656 0.8125 0.51562 1.5 1.0703 2.1211 1.6484 5.3359 5.0586 6.8555 13.434 8.2031 20.801l0.34375 1.8633c0.0625 0.40625-0.019532 0.81641-0.27734 1.1367-2.3984 3.1719-6.1289 4.9727-10.027 4.9727-0.32031 0-0.64453-0.023438-0.98438-0.046875l-1.4219-16.984c-0.0625-0.8125-0.76953-1.4141-1.5859-1.3281-0.79297 0.0625-1.3945 0.76953-1.3281 1.5625l1.543 18.297c-4.4141 3.1289-13.195 5.1445-23.328 5.1445-10.109 0-18.895-2.0156-23.309-5.1445l1.543-18.297c0.066407-0.79297-0.53516-1.5-1.3281-1.5625-0.8125-0.085938-1.5 0.51562-1.5859 1.3281l-1.4141 16.988c-0.34375 0.023437-0.66797 0.046875-1.0078 0.046875zm21.785-37.086c-0.066406 0.32031-0.12891 0.64063-0.21484 0.92188l0.70703 0.40625c0.0625 0.042968 0.12891 0.066406 0.19141 0.10547l4.6289 2.7227 4.6914-2.7422c0.042968-0.019531 0.085937-0.042969 0.12891-0.0625l0.72656-0.42578c-0.085937-0.28125-0.14844-0.60156-0.19141-0.92188-3.4688 1.9648-7.2188 1.9648-10.668-0.003907zm-8.1172-12.469c-0.42969-1.9297-0.73047-4.0938-0.83594-6.4492-0.44922-6.0859 1.1367-11.461 4.457-15.102 2.6133-2.8711 6.1055-4.4766 9.7891-4.5625 3.75 0.085938 7.2422 1.6914 9.8555 4.5625 3.3203 3.6445 4.9062 9.0195 4.457 15.145-0.10547 2.4414-0.40625 4.6484-0.87891 6.6211-0.68359 5.5273 0.30078 9.2305 2.9336 11.031 0.47266 0.32031 0.70703 0.87891 0.62109 1.4375-0.085937 0.55469-0.49219 1.0078-1.0273 1.1797-2.4414 0.70703-2.5703 4.0898-0.17188 4.9688h6.3398c1.3711 0 2.4844-1.0938 2.4844-2.4648 0-1.3516-1.1133-2.4648-2.4844-2.4648-0.79297 0-1.457-0.64453-1.457-1.4531 0-0.79297 0.66406-1.457 1.457-1.457 1.3711 0 2.4648-1.0938 2.4648-2.4648s-1.0703-2.4648-2.4648-2.4648c-0.79297 0-1.457-0.64453-1.457-1.457 0-0.79297 0.66406-1.457 1.457-1.457 1.3711 0 2.4648-1.0938 2.4648-2.4648 0-1.3516-1.0938-2.4648-2.4648-2.4648-0.79297 0-1.457-0.64453-1.457-1.457 0-0.79297 0.66406-1.457 1.457-1.457 1.3711 0 2.4648-1.0938 2.4648-2.4648 0-1.3516-1.0938-2.4648-2.4648-2.4648-0.79297 0-1.457-0.64453-1.457-1.457 0-0.79297 0.64453-1.457 1.457-1.457 1.4375 0 2.0781-0.30078 2.207-0.55859 0.72656-1.5195-3.4297-6.6172-4.7773-8.2891-0.51562-0.62109-0.94141-1.1562-1.2227-1.5391-4.1562-5.6992-11.098-8.6562-18.125-7.6914h-0.38672c-7.0039-0.96484-13.945 1.9922-18.102 7.6914-0.27734 0.38672-0.70703 0.92188-1.1992 1.5391-1.3711 1.6719-5.5273 6.7891-4.8008 8.2891 0.10547 0.25781 0.76953 0.55859 2.1875 0.55859 0.8125 0 1.457 0.66406 1.457 1.457 0 0.8125-0.64453 1.457-1.457 1.457-1.3477 0-2.4414 1.1133-2.4414 2.4648 0 1.3711 1.0938 2.4648 2.4414 2.4648 0.8125 0 1.457 0.66406 1.457 1.457 0 0.8125-0.64453 1.457-1.457 1.457-1.3477 0-2.4414 1.1133-2.4414 2.4648 0 1.3711 1.0938 2.4648 2.4414 2.4648 0.8125 0 1.457 0.66406 1.457 1.457 0 0.8125-0.64453 1.457-1.457 1.457-1.3477 0-2.4414 1.1133-2.4414 2.4648 0 1.3711 1.0938 2.4648 2.4414 2.4648 0.8125 0 1.457 0.66406 1.457 1.457 0 0.8125-0.64453 1.4531-1.457 1.4531-1.3477 0-2.4648 1.1133-2.4648 2.4648 0 0.77344 0.36328 1.4805 0.92188 1.9297 0.042968 0.023437 0.085937 0.0625 0.12891 0.085937 0.40625 0.27734 0.89844 0.44922 1.4141 0.44922h6.3633c2.3984-0.87891 2.2695-4.2617-0.17188-4.9688-0.53516-0.17188-0.94141-0.62109-1.0273-1.1797-0.085938-0.55859 0.14844-1.1133 0.62109-1.4375 3.5352-2.418 3.3203-7.5195 2.8945-11.246zm13.41-23.199c-2.8281 0.0625-5.5508 1.3516-7.625 3.5977-2.7852 3.0625-4.0938 7.6719-3.707 12.98 0.53516 12.125 6.2578 17.633 11.355 17.652 6.0625-0.019531 9.5117-6.7031 10.648-11.848 0.38281-1.7148 0.64062-3.6406 0.72656-5.7617 0.38672-5.3555-0.92188-9.9609-3.707-13.004-2.0586-2.2695-4.8008-3.5547-7.6914-3.6172zm4.4766 68.145c-0.70703 0-1.3086-0.49219-1.4336-1.1992l-2.5703-15.254c-0.12891-0.79297 0.40625-1.5625 1.1992-1.6914s1.543 0.40625 1.6719 1.1992l2.5703 15.254c0.12891 0.79297-0.40625 1.543-1.1992 1.6719-0.066406 0.019531-0.15234 0.019531-0.23828 0.019531zm-8.8906 0c-0.085938 0-0.14844 0-0.23438-0.019531-0.79297-0.12891-1.3281-0.87891-1.1992-1.6719l2.5703-15.254c0.12891-0.79297 0.87891-1.3281 1.6719-1.1992s1.3281 0.89844 1.1992 1.6914l-2.5703 15.254c-0.10938 0.70703-0.73047 1.1992-1.4375 1.1992zm-0.83594-28.043c-0.21484 0.30078-0.34375 0.64453-0.36328 1.0273-0.042969 0.64453 0.21484 1.2617 0.70703 1.6719 0.44922 0.40625 0.62109 1.0273 0.42969 1.5859l-6.4922 19.004c0.53516 0.68359 1.4141 1.0273 2.293 0.83594 0.49219-0.10547 1.0078 0.042969 1.3711 0.40625 0.34375 0.36328 0.49219 0.87891 0.36328 1.3711-0.53516 2.1641-0.89844 3.6016-1.0938 4.3047 0.55859 0.89844 1.6289 1.4141 2.6562 1.2422 0.47266-0.0625 0.92188 0.0625 1.2422 0.38672 2.3359 2.2695 5.9766 2.2695 8.3125 0.019531 0.32031-0.32031 0.76953-0.47266 1.2422-0.40625 1.0703 0.17188 2.1211-0.32031 2.6797-1.2422l-1.0938-4.3047c-0.12891-0.49219 0.019532-1.0078 0.36328-1.3711 0.36328-0.36328 0.87891-0.51562 1.3711-0.40625 0.87891 0.19141 1.7578-0.14844 2.293-0.83594l-6.4883-19.004c-0.19141-0.55859-0.019531-1.1797 0.40625-1.5625 0.51562-0.42969 0.76953-1.0508 0.70703-1.7148-0.019531-0.36328-0.12891-0.70703-0.34375-1.0078l-4.5625 2.6562c-0.21484 0.12891-0.47266 0.19141-0.73047 0.19141-0.25781 0-0.51562-0.0625-0.72656-0.19141z"/>
<text x="0.0" y="117.5" font-size="5.0" font-weight="bold" font-family="Arbeit Regular, Helvetica, Arial-Unicode, Arial, Sans-serif" fill="#000000">Created by hanis tusiyani</text><text x="0.0" y="122.5" font-size="5.0" font-weight="bold" font-family="Arbeit Regular, Helvetica, Arial-Unicode, Arial, Sans-serif" fill="#000000">from Noun Project</text></svg>