<svg xmlns="http://www.w3.org/2000/svg" version="1.1" viewBox="-5.0 -10.0 110.0 135.0">
 <path d="m21.801 87.734c-4.6055 0.42969-9.1445-1.5195-11.996-5.2891-0.25781-0.32031-0.34375-0.73047-0.27734-1.1367 0.12891-0.6875 0.25781-1.3945 0.38672-2.1016 1.457-7.9453 3.1055-16.965 8.8672-22.449 4.0938-3.8789 10.73-5.3789 16.578-6.7031 1.1562-0.27734 2.2891-0.51563 3.3438-0.79297 0.57812-0.12891 1.2422 0.30078 1.7148-0.085938 0.25781-0.23438 0.87891-1.0508 0.96484-3.918-1.7969-1.7344-3.4023-4.1133-4.6055-7.1133-2.1641-0.32031-4.1562-1.9922-5.3789-4.5391-1.0938-2.3125-1.457-5.4414 0.14844-7.2188 0.44922-0.47266 1.3086-1.1367 2.7422-1.1367-0.66406-5.9766 0.62109-11.227 3.707-14.953 2.7852-3.3633 6.8555-5.293 11.16-5.293 4.2852 0 8.2695 1.8438 11.203 5.1641 2.3984 2.6992 4.9883 7.4102 5.0547 15.102 1.5859-0.085937 2.5508 0.60156 3.0195 1.1367 1.6289 1.7578 1.2422 4.8828 0.14844 7.1992-0.51562 1.1367-1.2227 2.0781-1.9922 2.8281 1.9492 2.1641 2.5938 4.1562 3.1289 5.8281 0.62109 1.9922 1.0078 3.2148 3.4492 4.2422 0.55859 0.23438 0.96484 0.66406 1.1367 1.2227 0.55859 1.6719-1.5195 3.3008-2.6562 4.0938 3.6445 1.1133 7.0938 2.5938 9.5742 4.9492 5.7617 5.5078 7.4336 14.547 8.8906 22.535 0.10547 0.66406 0.23438 1.3516 0.36328 2.0156 0.0625 0.40625-0.019531 0.8125-0.27734 1.1562-2.8477 3.7266-7.4102 5.6758-11.977 5.2695l-1.543-18.305c-0.0625-0.8125-0.76953-1.3945-1.5859-1.3281-0.79297 0.0625-1.3945 0.77344-1.3281 1.5625l1.2656 14.824 0.38672 4.8203c-4.6914 3.4492-14.312 5.6758-25.43 5.6758-11.098 0-20.715-2.2305-25.406-5.6562l0.40625-4.8398 1.2422-14.824c0.0625-0.79297-0.53125-1.5-1.3242-1.5625-0.8125-0.0625-1.5 0.51562-1.5859 1.3281zm15.762-59.445c1.8203 22.535 21.57 24.121 24.594 2.3555-0.0625-0.10938-0.12891-0.21484-0.19141-0.32031v0.019531c0 1.5859-1.2852 2.8711-2.8516 2.8711h-6.3164c-1.3711 0-2.5273-0.98438-2.7852-2.3125-0.25781 1.3281-1.4375 2.3125-2.8281 2.3125h-6.3008c-1.5859 0-2.8672-1.2852-2.8672-2.8711v-2.2031c-0.15234 0.042969-0.29688 0.10547-0.45312 0.14844zm14.805-3.8984c-2.3555-0.64453-4.9453-1.3945-7.7305-2.9336-0.34375 1.1562-0.79297 2.0977-1.3516 2.8906h3.8984c1.3945 0 2.5703 1.0078 2.8281 2.3125 0.21484-1.1758 1.1562-2.0977 2.3555-2.2695zm0.49219 5.9141h6.1914v-3.043h-6.1914zm-11.93-3.043v3.0859l6.2109-0.042968v-3.043zm14.953 20.137c-3.7891 2.207-7.9883 2.1836-11.762-0.042969-0.27734 1.9297-0.87891 3.2578-1.8438 4.0469-0.32031 0.27734-0.76953 0.55859-1.3477 0.70703l2.1406 8.2695c4.457 1.9297 9.4453 1.8867 13.883-0.10547l2.1172-8.1406c-0.57812-0.17187-1.0273-0.44922-1.3516-0.70703-0.96094-0.81641-1.5586-2.1016-1.8359-4.0273zm9.4453-19.195c-0.14844 2.293-0.47266 4.3906-0.94141 6.2969 0.66406-0.57812 1.1992-1.3711 1.5625-2.1406 0.8125-1.7344 0.83594-3.4492 0.34375-3.9844-0.17188-0.19141-0.51562-0.23438-0.96484-0.17188zm-31.641 0.15234c-0.49219 0.53516-0.47266 2.2695 0.34375 4.0078 0.36328 0.76953 0.92188 1.5625 1.5859 2.1211-0.47266-1.8867-0.8125-4.0039-0.98438-6.2969-0.30469-0.046875-0.73047-0.070312-0.94531 0.16797zm6.7695 33.566c-0.019531-0.085937-0.042969-0.19141-0.0625-0.27734l-2.3984-9.2109c-0.27734 0.0625-0.55859 0.12891-0.83594 0.19141l-1.7578 10.281 4.2617 0.53125c0.79297 0.085938 1.3516 0.76953 1.2852 1.5625l-1.0273 12.832 6.2773 6.168zm21.551-9.4883-8.2266 31.574 6.2773-6.168-1.0078-12.832c-0.042969-0.79297 0.51562-1.4805 1.2852-1.5625l4.2656-0.51172-1.7578-10.305c-0.28125-0.066406-0.55859-0.13281-0.83594-0.19531z"/>
<text x="0.0" y="117.5" font-size="5.0" font-weight="bold" font-family="Arbeit Regular, Helvetica, Arial-Unicode, Arial, Sans-serif" fill="#000000">Created by hanis tusiyani</text><text x="0.0" y="122.5" font-size="5.0" font-weight="bold" font-family="Arbeit Regular, Helvetica, Arial-Unicode, Arial, Sans-serif" fill="#000000">from Noun Project</text></svg>