<svg xmlns="http://www.w3.org/2000/svg" version="1.1" viewBox="-5.0 -10.0 110.0 135.0">
 <path d="m21.664 88.023c-4.0078 0-7.8828-1.8633-10.391-5.1406-0.25781-0.32031-0.34375-0.75-0.27734-1.1562l0.36328-1.8867c1.3945-7.7109 2.9766-16.449 8.5469-21.742 3.7695-3.5586 9.7461-5.0586 15.168-6.2969 0-0.12891-0.019531-0.25781-0.019531-0.38672v-5.2266c0-1.6484 1.3281-2.9805 2.9766-2.9805h0.53516c-0.51562-0.92188-0.96484-1.9062-1.3711-2.957-2.1641-0.34375-4.1133-2.0547-5.2461-4.6484-1.1797-2.6797-1.0508-5.3125 0.30078-6.7461-0.94141-1.1133-1.5-2.5703-1.457-4.1367 0-0.12891 0.019531-0.23438 0.042969-0.34375 0.30078-1.0508 0.66406-2.0781 1.0938-3.0625 0.83594-10.066 8.2695-16.133 18.035-16.305 9.082 0.14844 17.844 6.3438 18.059 16.215 0.47266 1.0078 0.83594 2.0586 1.1367 3.1484 0.019532 0.10547 0.042969 0.21484 0.042969 0.34375 0.042969 1.5625-0.49219 3.0195-1.457 4.1367 1.3711 1.457 1.457 4.1328 0.25781 6.832-1.1367 2.5508-3.0859 4.2188-5.207 4.5859-0.40625 1.0273-0.87891 2.0156-1.3711 2.9336h0.53516c1.6484 0 2.9766 1.3281 2.9766 2.9805v5.2266c0 0.12891 0 0.25781-0.019531 0.38672 5.4414 1.2422 11.418 2.7422 15.145 6.2969 5.5469 5.2695 7.1328 13.926 8.5469 21.57 0.12891 0.6875 0.25781 1.3672 0.38672 2.0547 0.085937 0.40625-0.023438 0.83594-0.27734 1.1562-2.5078 3.2773-6.4062 5.1406-10.434 5.1406-0.36328 0-0.72656-0.019531-1.0938-0.042969-0.8125-9.5742-1.4805-17.629-1.4805-17.629-0.0625-0.79297-0.76953-1.3906-1.5859-1.3281-0.79297 0.066406-1.3906 0.76953-1.3281 1.5625l0.085937 0.89844-45.691 0.007813 0.0625-0.89844c0.0625-0.79297-0.53516-1.4961-1.3281-1.5625-0.8125-0.0625-1.5 0.53516-1.5625 1.3281 0 0-0.6875 8.0547-1.4766 17.609-0.40625 0.042968-0.8125 0.0625-1.2227 0.0625zm20.352-44.812h15.961c2.3125-3.2969 3.6641-7.9258 3.9648-13.41-1.5195-4.0078-6.3828-6.7695-11.953-6.7695-5.5273 0-10.391 2.7617-11.91 6.7461 0.25391 5.5273 1.625 10.156 3.9375 13.434zm18.465-19.793c1.6914-1.0508 2.6133-2.9805 2.3359-4.9688-0.62109-0.70703-1.3086-1.3711-2.0117-1.9727-0.085938 2.0977-0.89844 4.1133-2.3125 5.6758 0.70312 0.38672 1.3672 0.81641 1.9883 1.2656zm4.7344-1.3086c-0.51562 1.3086-1.3945 2.4648-2.5508 3.3438 0.64453 0.75 1.1562 1.543 1.5859 2.3984 0.0625-0.019531 0.12891-0.019531 0.19141-0.042968 1.0938-0.51562 1.8203-1.6055 1.8438-2.8477-0.27734-1.0078-0.64062-1.9531-1.0703-2.8516zm-9.6836-1.1758c1.9727-1.5195 2.8047-4.1133 2.1211-6.5117-1.9062-0.98438-4.0078-1.6055-6.2148-1.7773v7.5195c1.4375 0.10547 2.8086 0.38281 4.0938 0.76953zm-18.207 4.5195c-1.1367-0.87891-2.0156-2.0586-2.5273-3.3633-0.44922 0.89844-0.8125 1.8633-1.0938 2.8711 0.019531 1.2422 0.76953 2.3359 1.8438 2.8477 0.0625 0.019531 0.12891 0.019531 0.19141 0.042968 0.40625-0.85937 0.94531-1.6523 1.5859-2.3984zm-0.12891-7.0078c-0.27734 1.9688 0.64453 3.9414 2.3125 4.9922 0.62109-0.47266 1.2852-0.89844 2.0156-1.2852-1.4375-1.5625-2.25-3.5781-2.3359-5.6562-0.72656 0.57812-1.3906 1.2422-1.9922 1.9492zm5.1211-4.0273c-0.6875 2.3984 0.17188 4.9922 2.1445 6.5117 1.3047-0.38672 2.6562-0.66406 4.0703-0.77344v-7.5195c-2.2109 0.17578-4.3086 0.79688-6.2148 1.7812zm-7.1133 16.367c-0.10547-0.019531-0.23438-0.066406-0.34375-0.10938-0.21484 0-0.38672 0.066407-0.49219 0.17188-0.42969 0.44922-0.47266 1.9688 0.25781 3.5977 0.30078 0.70703 0.79297 1.5 1.4336 2.0781-0.42578-1.7969-0.70312-3.7031-0.85547-5.7383zm29.926-0.10938c-0.10547 0.042969-0.23438 0.085938-0.34375 0.10938-0.14844 2.0352-0.42969 3.9609-0.85547 5.7383 0.62109-0.55859 1.0938-1.3281 1.4141-2.0352 0.76953-1.7344 0.66406-3.2344 0.27734-3.6406-0.10547-0.10547-0.27734-0.14844-0.49219-0.17188zm8.9141 54.863 0.34375 4.0273c-4.543 3.2773-13.754 5.418-24.355 5.418-10.605 0-19.793-2.1406-24.355-5.418l0.34375-4.0273zm-33.59-34.059v-5.3555h-2.4219c-0.019531 0-0.0625 0.019531-0.0625 0.066406v5.2266c0 0.019531 0.042969 0.0625 0.0625 0.0625zm5.375 0v-5.3555h-2.4648v5.3555zm5.3984 0v-5.3555h-2.4844v5.3555zm8.3125-5.3594v5.3555h2.4219c0.042968 0 0.0625-0.042968 0.0625-0.0625v-5.2266c0-0.042969-0.019532-0.066406-0.0625-0.066406zm-2.9141 5.3594v-5.3555h-2.4844v5.3555z"/>
<text x="0.0" y="117.5" font-size="5.0" font-weight="bold" font-family="Arbeit Regular, Helvetica, Arial-Unicode, Arial, Sans-serif" fill="#000000">Created by hanis tusiyani</text><text x="0.0" y="122.5" font-size="5.0" font-weight="bold" font-family="Arbeit Regular, Helvetica, Arial-Unicode, Arial, Sans-serif" fill="#000000">from Noun Project</text></svg>