<svg xmlns="http://www.w3.org/2000/svg" viewBox="0 0 78.05 89.98"><g id="Layer_2" data-name="Layer 2"><g id="Layer_1-2" data-name="Layer 1"><path d="M10.69,83A13.13,13.13,0,0,1,.3,77.88,1.5,1.5,0,0,1,0,76.72l.36-1.89c1.4-7.71,3-16.45,8.55-21.74,3.77-3.56,9.75-5.06,15.17-6.3,0-.13,0-.25,0-.38V41.18a3,3,0,0,1,3-3h.53a24.42,24.42,0,0,1-1.37-3c-2.16-.34-4.11-2.05-5.25-4.65s-1-5.31.31-6.74a6.13,6.13,0,0,1-1.46-4.14,1.76,1.76,0,0,1,0-.34A24.16,24.16,0,0,1,21,16.31C21.79,6.24,29.22.17,39,0c9.08.15,17.84,6.34,18.06,16.22a19.56,19.56,0,0,1,1.14,3.14,1.87,1.87,0,0,1,0,.35,6,6,0,0,1-1.46,4.13c1.37,1.46,1.46,4.14.26,6.84a7.41,7.41,0,0,1-5.21,4.58,27.41,27.41,0,0,1-1.37,2.94H51a3,3,0,0,1,3,3V46.4a2.55,2.55,0,0,1,0,.39c5.45,1.24,11.42,2.74,15.15,6.3,5.55,5.27,7.13,13.92,8.55,21.57.12.68.25,1.36.38,2a1.41,1.41,0,0,1-.27,1.16A13.2,13.2,0,0,1,67.31,83c-.36,0-.73,0-1.09-.05-.82-9.57-1.48-17.62-1.48-17.62a1.46,1.46,0,0,0-2.92.23l.09.9H16.22l.06-.9a1.45,1.45,0,0,0-2.89-.24S12.7,73.4,11.91,83a9.87,9.87,0,0,1-1.22.06ZM31,38.2H47c2.32-3.29,3.67-7.92,4-13.41-1.52-4-6.39-6.77-12-6.77S28.62,20.79,27.1,24.77C27.36,30.3,28.73,34.93,31,38.2ZM49.51,18.41a5,5,0,0,0,2.33-5,19.65,19.65,0,0,0-2-2,9,9,0,0,1-2.31,5.67,19.86,19.86,0,0,1,2,1.27Zm4.73-1.31a7.74,7.74,0,0,1-2.55,3.35,12,12,0,0,1,1.59,2.39l.19,0A3.19,3.19,0,0,0,55.31,20a17.63,17.63,0,0,0-1.07-2.85Zm-9.68-1.17a6.13,6.13,0,0,0,2.12-6.52,16.35,16.35,0,0,0-6.22-1.77v7.52a18.6,18.6,0,0,1,4.1.77ZM26.35,20.45a8,8,0,0,1-2.53-3.37A16.19,16.19,0,0,0,22.73,20a3.23,3.23,0,0,0,1.84,2.85l.19,0a10.7,10.7,0,0,1,1.59-2.39Zm-.13-7a5.1,5.1,0,0,0,2.31,5,15.81,15.81,0,0,1,2-1.29,8.89,8.89,0,0,1-2.34-5.65A14.67,14.67,0,0,0,26.22,13.44Zm5.12-4a6.12,6.12,0,0,0,2.15,6.51,19.94,19.94,0,0,1,4.07-.77V7.63a16.54,16.54,0,0,0-6.22,1.78ZM24.23,25.78a2.24,2.24,0,0,1-.34-.11.69.69,0,0,0-.5.17c-.43.45-.47,2,.26,3.6a6.05,6.05,0,0,0,1.44,2.08A36.15,36.15,0,0,1,24.23,25.78Zm29.93-.11-.35.11A37,37,0,0,1,53,31.52a6.23,6.23,0,0,0,1.41-2c.77-1.73.66-3.23.28-3.64a.78.78,0,0,0-.49-.17Zm8.91,54.86.34,4C58.87,87.84,49.66,90,39.06,90S19.27,87.84,14.7,84.56l.35-4ZM29.48,46.47V41.12H27.06a.06.06,0,0,0-.06.06v5.23a.09.09,0,0,0,.06.06Zm5.37,0V41.12H32.39v5.35Zm5.4,0V41.12H37.77v5.35Zm8.32-5.36v5.36H51a.06.06,0,0,0,.06-.06V41.18s0-.07-.06-.07Zm-2.92,5.36V41.12H43.17v5.35Z"/></g></g></svg>