<?xml version="1.0" standalone="no"?>
<!DOCTYPE svg PUBLIC "-//W3C//DTD SVG 20010904//EN" "http://www.w3.org/TR/2001/REC-SVG-20010904/DTD/svg10.dtd">
<svg version="1.0" xmlns="http://www.w3.org/2000/svg"
   width="410.000000pt" height="410.000000pt" viewBox="0 0 410.000000 410.000000"
   preserveAspectRatio="xMidYMid meet">

   <g transform="translate(0.000000,410.000000) scale(0.100000,-0.100000)"
      fill="#000000" stroke="none">
      <path
         d="M1905 4038 c-793 -52 -1485 -586 -1745 -1343 -301 -879 47 -1854 838
-2344 624 -387 1426 -398 2056 -27 334 197 604 484 773 821 150 299 213 566
213 905 0 323 -58 579 -195 868 -273 571 -825 988 -1452 1098 -120 20 -353 31
-488 22z m173 -139 c-15 -8 -18 -25 -18 -113 0 -149 8 -194 34 -199 11 -2 -10
-5 -48 -6 -61 -1 -67 1 -51 13 17 12 18 24 11 152 -5 113 -10 141 -23 152 -14
10 -6 12 48 12 48 -1 60 -3 47 -11z m310 -21 c95 -17 122 -25 117 -36 -3 -7
-5 -21 -5 -30 -1 -16 -1 -16 -11 0 -11 20 -88 44 -99 31 -4 -4 -17 -66 -29
-137 l-22 -130 23 -19 c20 -16 21 -18 3 -12 -11 3 -41 9 -67 12 -27 3 -48 10
-48 14 0 5 6 9 14 9 16 0 17 5 46 159 17 93 19 116 8 122 -18 12 -98 11 -98
-1 0 -5 -4 -10 -9 -10 -5 0 -4 14 2 31 9 23 16 29 32 25 11 -3 75 -16 143 -28z
m-558 3 c0 -11 3 -28 6 -38 6 -15 3 -14 -15 5 -25 25 -72 29 -91 8 -23 -29 -7
-60 45 -88 116 -62 142 -158 55 -203 -31 -16 -120 -21 -120 -6 0 5 -3 24 -6
42 l-6 34 27 -32 c31 -38 65 -43 95 -13 36 36 20 68 -56 111 -63 36 -84 62
-84 104 0 57 44 92 123 94 20 1 27 -4 27 -18z m818 -68 c23 -9 31 -17 24 -22
-10 -6 -10 -25 -1 -84 8 -54 15 -75 23 -69 70 52 106 87 102 99 -7 17 10 15
59 -7 39 -18 39 -19 11 -19 -18 -1 -54 -20 -99 -53 -56 -42 -74 -62 -93 -105
-28 -62 -30 -81 -9 -89 8 -4 15 -10 15 -14 0 -4 -30 4 -66 19 -53 21 -62 27
-44 31 17 4 29 21 43 59 19 49 20 60 8 140 -7 56 -19 96 -32 115 l-21 28 23
-7 c12 -4 38 -14 57 -22z m-1158 -23 c30 -16 42 -65 26 -111 l-14 -39 73 -40
c40 -22 85 -40 101 -41 l29 -1 -30 -13 c-48 -22 -76 -18 -143 24 -97 59 -127
37 -73 -54 12 -20 24 -29 37 -27 31 6 8 -9 -51 -33 -30 -13 -55 -19 -55 -14 0
5 5 9 10 9 18 0 11 34 -25 126 -63 159 -67 166 -87 161 -10 -3 -18 -2 -18 1 0
12 133 60 168 61 18 0 42 -3 52 -9z m-340 -139 c14 -27 13 -30 -9 -24 -17 4
-81 -21 -81 -32 0 -14 57 -95 66 -95 7 0 26 13 43 29 l30 28 16 -23 c20 -30
19 -32 -7 -27 -13 2 -34 -5 -48 -16 l-24 -19 30 -49 c16 -26 37 -49 47 -51 27
-5 80 37 74 59 -3 11 -1 19 4 19 13 0 23 -50 12 -61 -11 -11 -153 -99 -160
-99 -3 0 0 7 7 15 10 13 3 31 -45 108 -90 143 -101 156 -127 150 -13 -3 15 20
62 50 47 30 88 56 92 56 4 1 12 -8 18 -18z m2005 -262 l10 -170 72 87 c62 76
70 90 61 108 -8 15 0 11 31 -13 42 -34 52 -47 26 -37 -10 3 -49 -32 -116 -107
-56 -62 -107 -112 -113 -112 -12 0 -23 113 -25 255 l-2 85 -44 -50 c-25 -27
-57 -67 -72 -88 -23 -34 -25 -41 -14 -59 8 -13 -5 -7 -33 17 -51 42 -54 45
-28 39 12 -4 47 28 120 111 57 64 107 113 110 110 4 -4 12 -83 17 -176z
m-2269 103 c-3 -9 19 -86 49 -170 30 -84 55 -159 55 -167 0 -9 -52 9 -160 56
-132 58 -163 68 -180 59 -30 -16 -25 -9 31 45 35 34 49 43 45 29 -6 -18 6 -27
104 -72 60 -28 110 -50 110 -48 0 1 -20 51 -44 111 -33 82 -49 110 -61 108
-12 -1 -7 9 16 33 38 39 43 41 35 16z m1454 -37 c283 -62 517 -191 720 -395
207 -207 336 -444 397 -730 26 -123 26 -452 -1 -565 -67 -291 -183 -510 -374
-707 -217 -224 -453 -354 -762 -419 -150 -31 -380 -32 -538 -1 -445 88 -814
367 -1014 767 -207 411 -205 884 3 1298 99 195 301 421 486 541 185 121 391
199 608 230 72 10 402 -3 475 -19z m-1763 -278 c-8 -21 0 -28 115 -110 109
-79 125 -86 146 -65 24 24 11 -5 -20 -46 -42 -55 -52 -65 -45 -45 7 21 -12 39
-133 124 -58 41 -101 64 -112 62 -19 -5 -20 -7 22 56 26 38 36 47 27 24z
m2973 -27 c0 -5 -38 -69 -85 -143 -47 -74 -85 -143 -85 -154 0 -11 9 -30 19
-42 l20 -23 143 32 c79 17 151 34 162 37 29 8 18 -8 -78 -113 -76 -84 -86 -99
-70 -104 11 -4 72 -11 137 -15 64 -4 117 -11 117 -15 0 -5 -61 -43 -135 -86
-117 -67 -135 -81 -136 -103 0 -23 -3 -22 -19 14 -22 48 -24 65 -7 65 6 0 49
22 95 49 l83 48 -77 6 c-42 4 -94 7 -115 7 -21 0 -41 5 -44 10 -4 6 28 49 70
95 77 84 77 85 44 78 -99 -19 -154 -39 -153 -56 3 -28 -14 -19 -21 11 -3 16
-26 55 -50 88 -45 59 -52 74 -36 74 4 0 20 18 35 40 l26 40 -26 40 c-15 22
-32 40 -39 40 -39 0 -78 -15 -84 -32 -6 -18 -10 -15 -35 22 -15 23 -25 44 -22
48 3 3 6 1 6 -5 0 -23 32 -20 181 17 174 43 179 44 179 30z m-2978 -284 c87
-42 137 -71 131 -77 -5 -5 -76 -34 -159 -65 -82 -31 -150 -57 -151 -58 -2 -2
40 -20 93 -41 80 -32 99 -37 115 -27 24 15 24 15 -5 -49 -20 -43 -25 -49 -25
-28 -1 23 -15 32 -143 92 -80 38 -138 71 -132 76 5 4 78 32 161 62 84 30 153
56 153 59 0 7 -176 80 -193 80 -7 0 -18 -5 -25 -12 -17 -17 -15 -7 10 48 17
38 23 44 26 28 2 -17 35 -37 144 -88z m-208 -413 c59 -12 118 -29 132 -38 76
-50 62 -196 -24 -232 -32 -13 -47 -13 -150 3 -113 18 -115 18 -129 -1 -15 -19
-15 -19 -10 5 3 14 9 45 13 69 6 35 9 40 15 25 6 -16 25 -23 105 -37 55 -10
112 -17 127 -17 39 0 77 41 77 83 0 53 -32 75 -145 97 -119 24 -131 25 -144 3
-13 -23 -13 -15 0 49 9 42 13 49 19 32 7 -16 27 -24 114 -41z m3530 -166 c4
-43 9 -84 13 -92 4 -12 -3 -15 -32 -15 -36 0 -37 0 -17 18 15 13 19 25 15 54
l-5 37 -47 -5 c-70 -9 -71 -9 -64 -51 3 -21 10 -44 16 -50 7 -10 -1 -13 -34
-12 -24 0 -37 3 -29 6 23 9 26 19 22 58 l-4 36 -57 -7 c-31 -3 -62 -12 -69
-19 -20 -18 -5 -84 22 -96 17 -7 15 -8 -14 -6 l-35 2 -7 70 c-4 39 -9 83 -12
99 -6 27 -5 28 12 13 16 -14 28 -14 137 -1 161 19 165 20 165 47 1 49 18 -10
24 -86z m-3504 -312 c0 -8 -4 -15 -9 -15 -5 0 -14 7 -21 15 -10 13 -9 15 9 15
12 0 21 -6 21 -15z m-32 -15 c22 -14 32 -27 32 -45 0 -30 -3 -30 -38 -8 -33
21 -42 33 -42 56 0 22 8 21 48 -3z m3432 -18 c0 -15 -11 -21 -27 -15 -12 5
-12 7 -1 14 17 11 28 11 28 1z m-32 -28 c23 -16 31 -64 10 -64 -19 0 -58 42
-58 62 0 22 18 23 48 2z m-3384 -35 c22 -18 37 -59 21 -59 -12 0 -70 33 -77
44 -25 38 13 49 56 15z m3365 -26 c31 -27 43 -73 19 -73 -23 0 -58 43 -58 72
0 15 2 28 4 28 2 0 18 -12 35 -27z m-3361 -43 c39 -24 46 -66 10 -55 -53 16
-82 48 -61 68 10 10 15 9 51 -13z m3355 -35 c28 -27 35 -59 15 -71 -15 -10
-58 44 -58 74 0 28 9 28 43 -3z m-3328 -50 c14 -13 25 -31 25 -40 0 -17 -16
-20 -25 -5 -3 6 -15 10 -25 10 -20 0 -53 38 -44 52 10 16 45 8 69 -17z m3313
-18 c27 -29 33 -70 11 -75 -21 -4 -62 59 -53 82 8 22 17 20 42 -7z m-3304 -48
c14 -11 26 -29 26 -39 0 -18 -2 -18 -37 -3 -39 16 -53 29 -53 51 0 19 34 14
64 -9z m3290 -30 c30 -35 33 -57 10 -66 -22 -8 -53 33 -54 70 0 35 12 34 44
-4z m-3276 -39 c18 -11 32 -28 32 -39 0 -17 -3 -18 -37 -6 -38 13 -66 41 -57
56 8 14 26 11 62 -11z m3267 -50 c12 -23 12 -31 1 -45 -12 -16 -14 -15 -34 13
-22 30 -28 62 -15 75 9 9 32 -11 48 -43z m-3256 -11 c27 -10 51 -34 51 -54 0
-9 -73 6 -87 18 -15 11 -18 47 -4 47 4 0 22 -5 40 -11z m3220 -39 c23 -32 25
-70 4 -77 -15 -5 -51 66 -45 90 5 24 15 21 41 -13z m-3181 -40 c17 -11 32 -26
32 -35 0 -11 -8 -13 -32 -9 -38 7 -74 37 -64 53 10 16 27 14 64 -9z m3155 -29
c33 -56 15 -102 -22 -55 -21 26 -28 64 -14 77 11 12 18 8 36 -22z m-3136 -31
c16 0 43 -28 43 -44 0 -18 -79 -4 -91 15 -16 26 -10 42 14 35 12 -3 27 -6 34
-6z m3107 -36 c18 -26 18 -74 1 -76 -15 -2 -49 67 -42 85 9 24 22 21 41 -9z
m-3070 -34 c14 -5 30 -18 36 -30 10 -18 8 -20 -24 -20 -38 0 -83 30 -72 48 9
14 27 15 60 2z m3039 -31 c20 -35 22 -65 5 -75 -21 -13 -57 59 -44 91 8 23 19
18 39 -16z m-2977 -50 c20 -16 18 -43 -2 -35 -9 3 -26 6 -39 6 -27 0 -58 27
-49 42 8 12 70 4 90 -13z m2942 -12 c15 -42 15 -64 0 -73 -16 -10 -38 25 -38
61 0 55 20 61 38 12z m-2905 -55 c27 -24 20 -32 -24 -28 -46 4 -83 31 -61 45
18 11 63 2 85 -17z m2877 -73 c-15 -27 -26 -24 -39 12 -14 41 -14 62 1 77 17
17 52 -63 38 -89z m-40 -42 c0 -20 -1 -20 -25 3 -27 26 -32 49 -13 68 9 9 15
5 25 -19 7 -17 13 -41 13 -52z m-2805 48 c0 -13 -8 -21 -22 -23 -28 -4 -63 14
-63 34 0 12 10 14 43 12 34 -2 42 -7 42 -23z m238 -85 c100 -120 285 -263 439
-341 256 -129 475 -176 768 -166 287 10 544 90 772 240 113 74 147 102 265
219 l101 101 21 -40 c30 -60 113 -129 177 -150 30 -9 54 -20 54 -24 0 -15
-185 -202 -258 -261 -510 -411 -1163 -533 -1783 -332 -139 45 -379 166 -498
251 -95 69 -286 243 -341 313 l-30 38 50 17 c65 22 152 100 177 160 10 25 20
45 23 44 3 0 31 -32 63 -69z m-263 40 c-20 -13 -33 -13 -25 0 3 6 14 10 23 10
15 0 15 -2 2 -10z" />
      <path
         d="M1381 3761 c-13 -8 -12 -18 4 -66 27 -79 29 -81 62 -69 24 8 28 16
31 52 3 34 -2 47 -22 67 -26 26 -51 31 -75 16z" />
      <path
         d="M1161 2844 c-41 -35 -71 -94 -71 -141 0 -44 -48 -195 -60 -188 -4 3
-11 20 -14 40 -8 41 -46 90 -88 111 -44 23 -52 8 -38 -62 12 -58 44 -101 106
-144 21 -15 21 -16 6 -80 l-15 -65 -13 38 c-23 65 -84 127 -126 127 -37 0 -13
-107 35 -158 12 -13 39 -33 60 -43 38 -20 46 -47 28 -92 -5 -15 -10 -11 -30
23 -27 48 -80 85 -135 95 -38 6 -38 6 -31 -22 17 -72 82 -137 151 -151 l39 -8
3 -58 3 -59 -39 31 c-22 17 -51 36 -66 42 -33 12 -93 13 -100 1 -9 -13 51 -89
87 -111 18 -11 53 -23 79 -26 46 -6 46 -7 53 -51 3 -25 5 -47 3 -49 -2 -2 -21
8 -41 23 -41 29 -139 45 -152 24 -9 -16 17 -54 61 -88 28 -21 52 -29 97 -33
55 -5 61 -7 70 -33 12 -37 6 -41 -29 -22 -32 17 -111 20 -134 5 -12 -8 -9 -15
19 -44 45 -46 95 -69 149 -68 41 0 43 -1 67 -49 14 -27 24 -49 22 -49 -2 0
-18 7 -36 16 -38 19 -119 21 -150 4 l-23 -12 24 -25 c48 -52 140 -77 202 -53
22 8 28 5 56 -29 16 -22 30 -41 30 -45 0 -3 -17 5 -37 17 -28 16 -54 22 -100
22 -75 0 -96 -14 -67 -46 48 -53 148 -76 218 -49 16 6 29 9 30 8 0 -2 17 -20
36 -41 l34 -37 -60 6 c-50 5 -67 3 -101 -15 -23 -11 -44 -25 -47 -29 -3 -5 15
-19 40 -31 50 -25 132 -26 191 -1 29 13 34 12 52 -5 30 -26 27 -30 -24 -31
-43 -1 -125 -42 -125 -63 0 -17 66 -36 125 -35 43 0 70 6 94 21 l33 21 67 -43
c74 -48 176 -101 233 -121 l38 -13 0 43 0 43 -62 23 c-73 26 -214 95 -222 109
-3 5 1 25 9 45 21 50 19 109 -6 167 -19 42 -24 47 -37 37 -37 -31 -54 -126
-32 -182 12 -33 6 -33 -40 4 l-37 30 23 47 c13 25 24 63 24 83 0 47 -29 132
-44 127 -6 -2 -21 -21 -34 -43 -18 -31 -22 -51 -20 -102 2 -34 1 -62 -3 -62
-3 0 -20 16 -39 35 l-34 35 26 27 c45 49 64 114 52 178 -8 42 -22 44 -56 8
-35 -38 -49 -67 -57 -122 l-7 -46 -26 39 -27 39 34 38 c40 45 59 107 51 168
-3 24 -8 46 -10 49 -8 7 -54 -29 -71 -55 -9 -13 -22 -52 -29 -86 l-13 -62 -21
42 c-29 56 -28 60 13 84 50 30 83 91 86 159 2 49 1 55 -17 52 -51 -8 -114
-110 -114 -187 0 -39 -13 -23 -39 47 l-21 58 38 24 c68 43 101 100 102 179 0
43 -5 45 -51 14 -44 -29 -78 -81 -86 -129 -8 -51 -20 -37 -27 32 l-7 55 52 30
c59 34 89 80 97 151 l5 45 -39 -16 c-53 -22 -73 -42 -100 -100 l-23 -50 2 58
c2 59 2 59 41 72 46 16 91 57 117 107 22 43 24 68 6 68 -36 0 -86 -24 -123
-61 -30 -30 -42 -36 -39 -23 2 10 7 36 10 57 6 36 7 37 48 37 56 1 115 29 155
74 39 45 40 53 3 61 -39 8 -97 -8 -145 -41 l-39 -27 8 39 c9 52 11 54 53 54
51 1 111 30 150 74 17 20 32 41 32 45 0 15 -63 22 -99 11 -18 -5 -45 -17 -58
-25 -14 -9 -27 -14 -30 -12 -8 9 29 71 68 114 39 43 53 85 47 143 -4 43 -18
47 -57 14z" />
      <path
         d="M2887 2863 c-12 -11 -7 -93 7 -127 8 -19 30 -52 50 -73 31 -35 63
-93 51 -93 -2 0 -19 9 -37 19 -59 35 -148 39 -148 7 0 -19 72 -84 112 -101 21
-8 53 -15 72 -15 32 0 36 -3 45 -37 16 -55 15 -56 -28 -27 -46 30 -111 47
-146 38 -33 -8 -31 -16 7 -60 40 -45 99 -73 154 -74 38 0 42 -2 48 -31 3 -17
6 -43 6 -58 l0 -26 -26 33 c-28 36 -62 56 -111 67 -30 6 -33 4 -33 -17 0 -41
52 -111 101 -135 24 -12 52 -24 62 -27 14 -4 17 -16 16 -63 l0 -58 -26 53
c-26 54 -75 97 -118 104 -17 3 -20 -2 -17 -32 8 -79 64 -154 130 -175 25 -7
26 -14 11 -87 l-12 -53 -16 53 c-20 65 -60 116 -102 131 l-31 11 4 -59 c5 -67
35 -116 94 -154 39 -25 40 -44 5 -120 -17 -37 -19 -39 -20 -16 -3 83 -60 176
-118 194 -20 6 -23 3 -23 -25 0 -84 47 -169 114 -205 17 -10 17 -12 -5 -58
-13 -26 -27 -47 -31 -47 -4 0 -8 18 -8 40 0 22 -6 55 -14 73 -16 37 -72 94
-83 84 -4 -4 -9 -34 -11 -65 -5 -65 16 -118 61 -161 l26 -23 -27 -41 -27 -41
-13 62 c-10 45 -23 72 -47 97 -18 19 -37 35 -43 35 -32 0 -26 -138 7 -179 45
-55 47 -69 16 -101 -16 -17 -32 -30 -35 -30 -4 0 -5 22 -2 49 5 59 -10 110
-42 140 l-24 23 -13 -23 c-6 -13 -14 -53 -17 -90 -4 -57 -1 -73 19 -108 l23
-41 -35 -30 c-39 -33 -54 -38 -44 -12 23 59 11 155 -25 187 -17 15 -19 13 -39
-29 -27 -55 -29 -131 -6 -176 17 -32 17 -34 -1 -48 -34 -25 -128 -69 -207 -97
l-78 -28 3 -41 c3 -35 6 -41 23 -38 33 5 195 87 259 130 l58 40 47 -25 c38
-20 55 -24 98 -20 55 6 106 26 106 42 0 19 -85 58 -129 59 l-44 1 25 25 c24
23 27 24 57 10 67 -29 213 -12 225 26 2 7 -17 22 -42 34 -38 18 -57 22 -101
17 l-54 -6 32 40 c22 27 37 38 47 33 66 -28 145 -19 203 22 53 37 56 49 17 63
-52 18 -82 14 -173 -24 -17 -7 -15 -1 10 33 19 28 34 40 44 36 67 -26 148 -10
206 40 l39 34 -28 11 c-40 15 -111 14 -152 -3 -41 -18 -42 -14 -12 39 21 37
26 40 70 43 27 1 65 11 86 22 47 23 96 79 83 92 -16 16 -96 12 -132 -5 -40
-20 -45 -17 -33 20 9 25 15 28 65 33 61 6 111 34 146 83 25 36 17 47 -38 47
-37 0 -113 -30 -124 -49 -15 -24 -23 -9 -15 32 4 23 8 45 9 48 0 4 21 9 46 13
58 8 108 38 139 84 34 50 32 62 -10 62 -46 0 -102 -24 -137 -57 l-28 -27 0 57
0 56 38 10 c60 17 108 56 136 113 15 29 22 56 17 61 -14 14 -89 -12 -125 -43
-18 -17 -39 -43 -46 -60 -18 -44 -30 -37 -30 19 0 44 3 49 25 55 38 10 99 76
113 122 25 85 9 104 -55 64 -36 -22 -60 -54 -78 -108 -14 -40 -16 -38 -35 43
-13 54 -16 48 56 99 34 24 64 90 64 144 0 49 -13 53 -56 20 -45 -35 -62 -59
-74 -107 -6 -24 -15 -40 -19 -35 -18 19 -51 140 -51 185 0 50 -29 105 -79 146
-28 24 -34 26 -44 16z" />
      <path
         d="M1786 2518 c-27 -5 -97 -22 -155 -39 -57 -16 -119 -29 -138 -29 -31
0 -33 -2 -33 -35 0 -28 -4 -35 -20 -35 -12 0 -22 -9 -25 -22 -3 -13 -4 -187
-3 -388 l3 -365 60 3 c33 2 119 19 191 37 145 39 241 45 301 20 45 -19 121
-19 166 0 47 19 147 19 222 -1 153 -39 214 -53 268 -59 l57 -6 0 390 c0 380
-1 391 -19 391 -15 0 -21 8 -23 32 -3 31 -6 33 -55 40 -28 4 -98 21 -156 37
-145 41 -203 47 -268 27 -30 -8 -67 -26 -84 -40 l-29 -24 -36 28 c-59 47 -123
58 -224 38z m204 -37 l45 -27 3 -382 c1 -210 -1 -382 -5 -382 -3 0 -14 7 -24
16 -27 24 -88 43 -141 44 -26 0 -117 -18 -202 -40 -85 -22 -164 -40 -175 -40
-21 0 -21 3 -21 384 l0 383 48 6 c27 3 90 18 141 32 179 52 254 53 331 6z
m445 -6 c72 -18 144 -35 160 -37 l30 -3 3 -382 2 -383 -28 0 c-16 0 -84 16
-153 35 -68 20 -156 38 -195 42 -72 6 -83 3 -196 -55 -5 -2 -8 165 -8 370 l0
375 23 20 c78 71 145 75 362 18z" />
      <path
         d="M1710 2434 c-165 -46 -185 -52 -165 -53 11 -1 67 13 125 30 108 32
211 42 280 26 30 -7 32 -6 15 4 -39 24 -153 21 -255 -7z" />
      <path
         d="M1725 2374 c-49 -13 -111 -29 -137 -36 -27 -6 -48 -15 -48 -19 0 -8
17 -4 155 36 116 33 171 38 233 22 29 -8 49 -10 44 -5 -13 13 -79 28 -122 27
-19 0 -75 -11 -125 -25z" />
      <path
         d="M1820 2332 c-19 -1 -87 -17 -150 -34 -150 -40 -144 -38 -137 -44 3
-3 56 9 119 27 126 36 239 48 289 30 37 -13 54 -6 18 7 -31 12 -95 18 -139 14z" />
      <path
         d="M1725 2249 c-38 -10 -99 -27 -135 -36 -35 -9 -59 -18 -52 -21 7 -2
63 11 125 29 113 33 223 43 292 27 l30 -7 -30 14 c-42 20 -147 17 -230 -6z" />
      <path
         d="M1755 2195 c-98 -23 -232 -64 -210 -64 11 -1 67 12 125 29 135 39
212 46 268 27 23 -8 42 -11 42 -6 0 12 -70 29 -120 28 -25 0 -72 -7 -105 -14z" />
      <path
         d="M1775 2135 c-53 -11 -195 -48 -234 -61 -8 -2 -12 -6 -9 -9 2 -2 62
12 133 31 138 37 236 45 290 24 22 -8 27 -8 19 0 -14 14 -78 30 -114 29 -14
-1 -52 -7 -85 -14z" />
      <path
         d="M1695 2054 c-49 -13 -107 -29 -129 -35 -21 -6 -36 -13 -33 -15 3 -3
67 11 143 31 112 30 150 36 203 33 37 -3 75 -9 86 -13 17 -7 18 -6 7 6 -24 26
-174 22 -277 -7z" />
      <path
         d="M1715 1995 c-140 -37 -191 -53 -177 -54 7 -1 74 15 150 35 136 35
191 39 272 20 21 -5 20 -4 -5 8 -44 22 -138 18 -240 -9z" />
      <path
         d="M1700 1928 c-63 -16 -128 -34 -145 -38 -24 -6 -26 -8 -8 -9 13 -1 71
13 130 30 118 34 240 43 281 21 12 -7 22 -9 22 -4 0 13 -79 32 -127 32 -21 -1
-90 -15 -153 -32z" />
      <path
         d="M1805 1890 c-27 -4 -95 -20 -150 -35 -131 -35 -129 -35 -123 -40 2
-2 62 11 134 30 134 36 246 46 286 24 11 -6 22 -8 25 -5 18 18 -103 37 -172
26z" />
      <path
         d="M1675 1799 c-122 -34 -173 -53 -115 -43 19 3 73 18 120 32 89 26 230
36 280 18 20 -7 23 -6 13 5 -8 8 -45 14 -100 16 -74 2 -106 -2 -198 -28z" />
      <path
         d="M2145 2445 l-30 -15 35 8 c72 15 163 6 277 -27 62 -18 118 -31 124
-29 6 2 -44 19 -112 38 -142 39 -248 48 -294 25z" />
      <path
         d="M2158 2389 c-21 -6 -38 -15 -38 -20 0 -6 7 -6 18 -1 57 30 141 22
335 -32 48 -14 87 -22 87 -18 0 12 -248 74 -308 78 -31 2 -74 -2 -94 -7z" />
      <path
         d="M2175 2329 c-22 -5 -44 -14 -50 -20 -5 -5 5 -5 23 2 51 18 174 5 296
-30 60 -17 112 -29 114 -26 6 6 -1 8 -138 44 -140 36 -193 43 -245 30z" />
      <path
         d="M2155 2263 c-11 -3 -24 -9 -30 -15 -6 -6 1 -7 20 -1 63 17 177 7 289
-25 60 -18 114 -32 119 -32 25 0 -8 12 -109 41 -105 30 -240 46 -289 32z" />
      <path
         d="M2151 2199 c-46 -14 -32 -23 16 -10 59 17 92 14 237 -24 173 -45 197
-44 41 1 -128 38 -239 50 -294 33z" />
      <path
         d="M2163 2139 c-24 -6 -43 -14 -43 -19 0 -5 12 -5 28 1 48 19 156 11
265 -20 136 -38 147 -41 147 -30 0 5 -8 9 -17 9 -10 0 -64 13 -120 29 -118 35
-201 44 -260 30z" />
      <path
         d="M2141 2069 c-13 -5 -22 -12 -19 -14 3 -3 17 -1 32 5 51 19 139 11
270 -26 70 -19 130 -33 133 -30 7 7 9 6 -137 45 -119 32 -229 40 -279 20z" />
      <path
         d="M2155 2013 c-11 -3 -24 -9 -30 -15 -6 -6 1 -7 20 -1 63 17 167 7 283
-26 62 -18 118 -31 124 -29 6 2 -43 19 -108 37 -114 33 -241 47 -289 34z" />
      <path
         d="M2185 1956 c-5 -2 -22 -7 -37 -10 -16 -4 -28 -11 -28 -17 0 -6 9 -5
23 3 40 22 162 13 277 -21 58 -17 114 -31 125 -30 11 0 -34 16 -100 35 -108
31 -233 50 -260 40z" />
      <path
         d="M2163 1889 c-24 -6 -43 -14 -43 -19 0 -5 14 -4 31 2 48 17 182 3 299
-31 120 -35 110 -33 110 -23 0 4 -24 13 -52 20 -29 6 -85 20 -124 31 -92 25
-169 32 -221 20z" />
      <path
         d="M2141 1820 c-35 -15 -20 -22 18 -9 48 17 159 5 281 -30 58 -17 109
-31 114 -31 24 0 -10 13 -110 41 -116 34 -259 47 -303 29z" />
      <path d="M651 2174 c0 -11 3 -14 6 -6 3 7 2 16 -1 19 -3 4 -6 -2 -5 -13z" />
      <path d="M3442 2130 c0 -14 2 -19 5 -12 2 6 2 18 0 25 -3 6 -5 1 -5 -13z" />
      <path
         d="M2235 1480 c-4 -6 1 -10 9 -10 22 0 20 -22 -5 -54 l-20 -26 28 1 c17
1 21 3 10 6 -15 4 -16 6 -2 26 8 12 15 29 15 38 0 19 -26 33 -35 19z" />
      <path
         d="M2305 1480 c-4 -6 1 -10 9 -10 19 0 21 -11 4 -28 -8 -8 -9 -12 -1
-12 6 0 13 -8 16 -17 2 -10 4 1 4 24 1 40 -18 65 -32 43z" />
      <path d="M1765 1435 c0 -25 3 -45 8 -45 4 0 7 20 7 45 0 25 -3 45 -7 45 -5 0
-8 -20 -8 -45z" />
      <path
         d="M1851 1466 c0 -10 10 -27 24 -38 14 -11 22 -24 19 -30 -4 -7 -2 -8 4
-4 20 12 13 36 -13 48 -13 6 -26 18 -28 27 -4 13 -5 12 -6 -3z" />
      <path d="M1955 1435 c0 -25 3 -45 8 -45 4 0 7 20 7 45 0 25 -3 45 -7 45 -5 0
-8 -20 -8 -45z" />
      <path
         d="M2098 1470 c20 -9 21 -13 11 -32 -11 -22 -10 -22 6 -6 23 21 13 48
-17 47 l-23 0 23 -9z" />
      <path d="M2157 1473 c-9 -9 -9 -71 1 -76 4 -3 7 15 7 39 0 24 0 44 -1 44 0 0
-4 -3 -7 -7z" />
      <path d="M2185 1435 c0 -25 1 -45 2 -45 10 0 22 45 17 65 -10 39 -19 30 -19
-20z" />
      <path d="M1805 1440 c-3 -5 -1 -10 4 -10 6 0 11 5 11 10 0 6 -2 10 -4 10 -3 0
-8 -4 -11 -10z" />
      <path d="M2093 1393 c9 -2 23 -2 30 0 6 3 -1 5 -18 5 -16 0 -22 -2 -12 -5z" />
      <path d="M2168 653 c7 -3 16 -2 19 1 4 3 -2 6 -13 5 -11 0 -14 -3 -6 -6z" />
      <path
         d="M3410 3096 c-48 -14 -53 -27 -21 -60 18 -18 20 -17 50 28 18 25 28
46 24 45 -4 -1 -28 -7 -53 -13z" />
      <path
         d="M3169 846 l-26 -23 43 -45 43 -45 27 28 c28 29 25 42 -3 14 -12 -12
-18 -13 -29 -4 -16 13 -19 39 -4 39 6 0 10 5 10 12 0 6 -8 4 -19 -6 -17 -15
-19 -15 -32 0 -11 14 -11 18 6 30 10 8 17 16 14 18 -2 2 -16 -6 -30 -18z" />
      <path
         d="M893 853 c-8 -3 -13 -23 -13 -49 0 -33 -4 -44 -15 -44 -9 0 -19 10
-24 22 -5 13 -10 17 -14 11 -9 -15 19 -43 42 -43 28 0 42 23 35 59 -5 24 -3
31 9 31 9 0 21 -8 26 -17 10 -17 10 -17 11 -1 0 14 -29 40 -42 37 -2 0 -9 -3
-15 -6z" />
      <path
         d="M987 715 l-38 -45 28 -24 c15 -13 32 -22 37 -18 5 3 0 9 -12 13 -12
5 -22 12 -22 16 0 13 52 83 62 83 5 0 6 5 3 10 -10 17 -19 12 -58 -35z" />
      <path
         d="M3045 740 c-44 -17 -45 -32 -4 -83 21 -26 41 -43 44 -37 4 6 1 17 -5
25 -18 22 -4 35 29 25 15 -4 34 -4 41 0 7 5 -2 10 -24 14 -26 5 -36 12 -36 25
0 26 -21 40 -45 31z m25 -25 c10 -12 10 -19 2 -27 -15 -15 -48 14 -38 31 10
15 21 14 36 -4z" />
      <path
         d="M1110 640 c-27 -27 -25 -56 5 -85 29 -30 68 -32 95 -5 28 28 25 64
-6 89 -34 26 -68 27 -94 1z m84 -6 c19 -18 20 -25 4 -58 -15 -35 -46 -43 -70
-18 -22 21 -19 50 8 77 20 19 39 19 58 -1z" />
      <path
         d="M2899 642 l-26 -17 31 -51 c31 -51 32 -52 59 -38 15 8 27 20 27 26 0
9 -3 9 -12 0 -17 -17 -35 -15 -42 5 -5 11 0 22 11 31 16 12 16 13 -8 7 -20 -5
-28 -2 -33 11 -7 18 11 37 26 28 4 -3 8 0 8 5 0 15 -11 14 -41 -7z" />
      <path
         d="M2771 571 c-10 -7 -11 -13 -2 -29 10 -19 8 -23 -19 -37 -29 -15 -31
-15 -40 9 -6 18 -14 24 -26 19 -8 -3 -12 -9 -7 -12 5 -3 18 -27 29 -53 10 -27
24 -46 29 -44 6 2 8 10 6 17 -2 8 -5 21 -8 30 -3 9 6 20 22 27 34 16 33 16 42
-18 6 -21 12 -27 21 -21 11 7 9 18 -12 58 -14 28 -22 53 -19 57 9 9 0 7 -16
-3z" />
      <path
         d="M1300 540 c-38 -38 -20 -85 42 -109 23 -8 29 -7 42 13 14 22 12 36
-5 36 -4 0 -11 -9 -14 -20 -9 -27 -31 -25 -51 4 -13 22 -14 29 -2 53 16 35 50
41 77 14 11 -11 23 -16 26 -11 7 11 -46 40 -75 40 -11 0 -29 -9 -40 -20z" />
      <path
         d="M1498 440 c-25 -28 -42 -52 -38 -55 4 -3 11 2 14 11 9 24 49 13 56
-15 3 -14 11 -26 17 -28 7 -3 9 17 6 64 -3 37 -7 69 -8 71 -1 1 -22 -21 -47
-48z m32 -10 c0 -13 -5 -18 -15 -14 -12 5 -13 10 -4 20 15 19 19 18 19 -6z" />
      <path
         d="M2502 468 c-23 -23 -13 -47 24 -63 41 -17 41 -40 1 -40 -16 1 -23 -3
-18 -8 13 -13 42 -5 55 16 14 22 -2 49 -35 57 -31 7 -32 35 -1 34 12 0 22 3
22 8 0 12 -34 10 -48 -4z" />
      <path
         d="M1665 424 c-4 -16 -11 -43 -15 -61 -6 -22 -4 -33 5 -37 7 -2 12 1 12
7 -1 36 4 67 11 67 4 0 21 -21 37 -45 17 -25 33 -45 37 -45 3 0 9 19 13 43 3
23 9 50 11 60 3 9 1 17 -5 17 -6 0 -11 -12 -11 -27 0 -55 -15 -55 -52 -1 l-37
52 -6 -30z" />
      <path
         d="M2347 433 c-11 -3 -16 -11 -13 -21 2 -9 8 -37 11 -60 6 -39 10 -43
29 -38 11 3 27 6 34 6 6 0 12 4 12 9 0 4 -11 6 -25 3 -21 -4 -25 -1 -25 21 0
16 7 27 18 30 13 4 11 5 -5 6 -16 1 -23 7 -23 22 0 16 5 20 20 16 11 -3 20 -1
20 4 0 9 -22 10 -53 2z" />
      <path
         d="M1933 395 c-27 -19 -31 -66 -8 -89 38 -37 105 -32 105 9 0 15 -6 25
-14 25 -9 0 -12 -7 -9 -20 7 -25 -18 -36 -46 -20 -26 13 -36 52 -21 79 12 24
58 29 79 9 11 -11 13 -10 9 2 -6 21 -68 24 -95 5z" />
      <path
         d="M2136 394 c-9 -8 -16 -28 -16 -44 0 -16 7 -36 16 -44 21 -22 77 -20
97 2 20 22 22 73 5 90 -17 17 -84 15 -102 -4z m88 -27 c13 -35 -1 -61 -34 -65
-29 -5 -50 21 -50 58 0 35 8 42 44 38 23 -2 33 -10 40 -31z" />
      <path d="M22 2230 c0 -14 2 -19 5 -12 2 6 2 18 0 25 -3 6 -5 1 -5 -13z" />
      <path d="M4072 2195 c0 -16 2 -22 5 -12 2 9 2 23 0 30 -3 6 -5 -1 -5 -18z" />
      <path d="M4072 1910 c0 -14 2 -19 5 -12 2 6 2 18 0 25 -3 6 -5 1 -5 -13z" />
      <path d="M22 1870 c0 -14 2 -19 5 -12 2 6 2 18 0 25 -3 6 -5 1 -5 -13z" />
      <path d="M1858 23 c6 -2 18 -2 25 0 6 3 1 5 -13 5 -14 0 -19 -2 -12 -5z" />
   </g>
</svg>